<mxfile host="app.diagrams.net" modified="2021-09-06T09:17:06.170Z" agent="5.0 (Macintosh; Intel Mac OS X 10_15_5) AppleWebKit/537.36 (KHTML, like Gecko) Chrome/93.0.4577.42 Safari/537.36" etag="yXNSDeVUAnZNNSRq1S6a" version="15.0.3" type="github">
  <diagram id="uu6LJ2HnGZjvjrNSS3E5" name="Page-1">
    <mxGraphModel dx="1388" dy="731" grid="1" gridSize="10" guides="1" tooltips="1" connect="1" arrows="1" fold="1" page="1" pageScale="1" pageWidth="850" pageHeight="1100" math="0" shadow="0">
      <root>
        <mxCell id="0" />
        <mxCell id="1" parent="0" />
        <mxCell id="9XJBlOZOh_5K-bEGQY22-7" value="" style="rounded=0;whiteSpace=wrap;html=1;" vertex="1" parent="1">
          <mxGeometry x="535" y="50" width="240" height="400" as="geometry" />
        </mxCell>
        <mxCell id="9XJBlOZOh_5K-bEGQY22-8" value="java.lang" style="text;html=1;strokeColor=none;fillColor=none;align=center;verticalAlign=middle;whiteSpace=wrap;rounded=0;" vertex="1" parent="1">
          <mxGeometry x="545" y="60" width="90" height="20" as="geometry" />
        </mxCell>
        <mxCell id="9XJBlOZOh_5K-bEGQY22-3" value="" style="edgeStyle=orthogonalEdgeStyle;rounded=0;orthogonalLoop=1;jettySize=auto;html=1;" edge="1" parent="1" source="9XJBlOZOh_5K-bEGQY22-1" target="9XJBlOZOh_5K-bEGQY22-2">
          <mxGeometry relative="1" as="geometry" />
        </mxCell>
        <mxCell id="9XJBlOZOh_5K-bEGQY22-4" value="" style="rounded=0;whiteSpace=wrap;html=1;" vertex="1" parent="1">
          <mxGeometry x="30" y="40" width="470" height="410" as="geometry" />
        </mxCell>
        <mxCell id="9XJBlOZOh_5K-bEGQY22-1" value="Type&lt;br&gt;&lt;i&gt;interface&lt;/i&gt;" style="rounded=0;whiteSpace=wrap;html=1;" vertex="1" parent="1">
          <mxGeometry x="160" y="130" width="120" height="60" as="geometry" />
        </mxCell>
        <mxCell id="9XJBlOZOh_5K-bEGQY22-15" value="" style="edgeStyle=orthogonalEdgeStyle;rounded=0;orthogonalLoop=1;jettySize=auto;html=1;" edge="1" parent="1" source="9XJBlOZOh_5K-bEGQY22-2" target="9XJBlOZOh_5K-bEGQY22-1">
          <mxGeometry relative="1" as="geometry">
            <Array as="points">
              <mxPoint x="100" y="220" />
              <mxPoint x="220" y="220" />
            </Array>
          </mxGeometry>
        </mxCell>
        <mxCell id="9XJBlOZOh_5K-bEGQY22-2" value="ParameterizedType&lt;br&gt;&lt;i&gt;interface&lt;/i&gt;" style="rounded=0;whiteSpace=wrap;html=1;" vertex="1" parent="1">
          <mxGeometry x="40" y="240" width="120" height="60" as="geometry" />
        </mxCell>
        <mxCell id="9XJBlOZOh_5K-bEGQY22-5" value="java.lang.reflect" style="text;html=1;strokeColor=none;fillColor=none;align=center;verticalAlign=middle;whiteSpace=wrap;rounded=0;" vertex="1" parent="1">
          <mxGeometry x="160" y="50" width="90" height="20" as="geometry" />
        </mxCell>
        <mxCell id="9XJBlOZOh_5K-bEGQY22-9" style="edgeStyle=orthogonalEdgeStyle;rounded=0;orthogonalLoop=1;jettySize=auto;html=1;entryX=1;entryY=0.5;entryDx=0;entryDy=0;" edge="1" parent="1" source="9XJBlOZOh_5K-bEGQY22-6" target="9XJBlOZOh_5K-bEGQY22-1">
          <mxGeometry relative="1" as="geometry" />
        </mxCell>
        <mxCell id="9XJBlOZOh_5K-bEGQY22-6" value="" style="rounded=0;whiteSpace=wrap;html=1;" vertex="1" parent="1">
          <mxGeometry x="605" y="130" width="160" height="190" as="geometry" />
        </mxCell>
        <mxCell id="9XJBlOZOh_5K-bEGQY22-11" value="&lt;span style=&quot;font-size: 11px ; background-color: rgb(255 , 255 , 255)&quot;&gt;implements&lt;/span&gt;" style="text;html=1;strokeColor=none;fillColor=none;align=center;verticalAlign=middle;whiteSpace=wrap;rounded=0;" vertex="1" parent="1">
          <mxGeometry x="550" y="200" width="40" height="20" as="geometry" />
        </mxCell>
        <mxCell id="9XJBlOZOh_5K-bEGQY22-12" value="Class" style="text;html=1;strokeColor=none;fillColor=none;align=center;verticalAlign=middle;whiteSpace=wrap;rounded=0;" vertex="1" parent="1">
          <mxGeometry x="635" y="140" width="40" height="20" as="geometry" />
        </mxCell>
        <mxCell id="9XJBlOZOh_5K-bEGQY22-19" style="edgeStyle=orthogonalEdgeStyle;rounded=0;orthogonalLoop=1;jettySize=auto;html=1;entryX=1.002;entryY=0.443;entryDx=0;entryDy=0;dashed=1;entryPerimeter=0;" edge="1" parent="1" source="9XJBlOZOh_5K-bEGQY22-13" target="9XJBlOZOh_5K-bEGQY22-17">
          <mxGeometry relative="1" as="geometry">
            <Array as="points">
              <mxPoint x="750" y="340" />
              <mxPoint x="340" y="340" />
              <mxPoint x="340" y="293" />
            </Array>
          </mxGeometry>
        </mxCell>
        <mxCell id="9XJBlOZOh_5K-bEGQY22-13" value="getTyeParamters()" style="rounded=0;whiteSpace=wrap;html=1;" vertex="1" parent="1">
          <mxGeometry x="630" y="235" width="110" height="20" as="geometry" />
        </mxCell>
        <mxCell id="9XJBlOZOh_5K-bEGQY22-16" style="edgeStyle=orthogonalEdgeStyle;rounded=0;orthogonalLoop=1;jettySize=auto;html=1;entryX=0.5;entryY=1;entryDx=0;entryDy=0;" edge="1" parent="1" source="9XJBlOZOh_5K-bEGQY22-14" target="9XJBlOZOh_5K-bEGQY22-1">
          <mxGeometry relative="1" as="geometry">
            <Array as="points">
              <mxPoint x="410" y="220" />
              <mxPoint x="220" y="220" />
            </Array>
          </mxGeometry>
        </mxCell>
        <mxCell id="9XJBlOZOh_5K-bEGQY22-14" value="WildcardType&lt;br&gt;&lt;i&gt;interface&lt;/i&gt;" style="rounded=0;whiteSpace=wrap;html=1;" vertex="1" parent="1">
          <mxGeometry x="350" y="240" width="120" height="60" as="geometry" />
        </mxCell>
        <mxCell id="9XJBlOZOh_5K-bEGQY22-18" style="edgeStyle=orthogonalEdgeStyle;rounded=0;orthogonalLoop=1;jettySize=auto;html=1;entryX=0.5;entryY=1;entryDx=0;entryDy=0;" edge="1" parent="1" source="9XJBlOZOh_5K-bEGQY22-17" target="9XJBlOZOh_5K-bEGQY22-1">
          <mxGeometry relative="1" as="geometry">
            <Array as="points">
              <mxPoint x="255" y="220" />
              <mxPoint x="220" y="220" />
            </Array>
          </mxGeometry>
        </mxCell>
        <mxCell id="9XJBlOZOh_5K-bEGQY22-17" value="" style="rounded=0;whiteSpace=wrap;html=1;" vertex="1" parent="1">
          <mxGeometry x="195" y="240" width="120" height="120" as="geometry" />
        </mxCell>
        <mxCell id="9XJBlOZOh_5K-bEGQY22-22" style="edgeStyle=orthogonalEdgeStyle;rounded=0;orthogonalLoop=1;jettySize=auto;html=1;dashed=1;entryX=0.5;entryY=1;entryDx=0;entryDy=0;exitX=0.5;exitY=1;exitDx=0;exitDy=0;" edge="1" parent="1" source="9XJBlOZOh_5K-bEGQY22-21" target="9XJBlOZOh_5K-bEGQY22-2">
          <mxGeometry relative="1" as="geometry">
            <mxPoint x="140" y="420" as="targetPoint" />
            <Array as="points">
              <mxPoint x="255" y="390" />
              <mxPoint x="100" y="390" />
            </Array>
          </mxGeometry>
        </mxCell>
        <mxCell id="9XJBlOZOh_5K-bEGQY22-20" value="TypeVariable&lt;br&gt;&lt;i&gt;interface&lt;/i&gt;" style="text;html=1;strokeColor=none;fillColor=none;align=center;verticalAlign=middle;whiteSpace=wrap;rounded=0;" vertex="1" parent="1">
          <mxGeometry x="220" y="255" width="70" height="20" as="geometry" />
        </mxCell>
        <mxCell id="9XJBlOZOh_5K-bEGQY22-21" value="Type[] getBounds()" style="rounded=0;whiteSpace=wrap;html=1;" vertex="1" parent="1">
          <mxGeometry x="200" y="300" width="110" height="20" as="geometry" />
        </mxCell>
        <mxCell id="9XJBlOZOh_5K-bEGQY22-23" style="edgeStyle=orthogonalEdgeStyle;rounded=0;orthogonalLoop=1;jettySize=auto;html=1;dashed=1;entryX=0.5;entryY=1;entryDx=0;entryDy=0;exitX=0.5;exitY=1;exitDx=0;exitDy=0;" edge="1" parent="1" source="9XJBlOZOh_5K-bEGQY22-21" target="9XJBlOZOh_5K-bEGQY22-14">
          <mxGeometry relative="1" as="geometry">
            <mxPoint x="265" y="330" as="sourcePoint" />
            <mxPoint x="110" y="310" as="targetPoint" />
            <Array as="points">
              <mxPoint x="255" y="390" />
              <mxPoint x="410" y="390" />
            </Array>
          </mxGeometry>
        </mxCell>
        <mxCell id="9XJBlOZOh_5K-bEGQY22-24" value="reference" style="text;html=1;strokeColor=none;fillColor=none;align=center;verticalAlign=middle;whiteSpace=wrap;rounded=0;" vertex="1" parent="1">
          <mxGeometry x="240" y="400" width="40" height="20" as="geometry" />
        </mxCell>
        <mxCell id="9XJBlOZOh_5K-bEGQY22-25" value="Class is instantiable entity, while Type are possibly only parameters used by Class." style="text;html=1;strokeColor=none;fillColor=none;align=left;verticalAlign=middle;whiteSpace=wrap;rounded=0;" vertex="1" parent="1">
          <mxGeometry x="50" y="480" width="390" height="40" as="geometry" />
        </mxCell>
        <mxCell id="9XJBlOZOh_5K-bEGQY22-26" value="" style="rounded=0;whiteSpace=wrap;html=1;align=left;" vertex="1" parent="1">
          <mxGeometry x="870" y="90" width="230" height="240" as="geometry" />
        </mxCell>
        <mxCell id="9XJBlOZOh_5K-bEGQY22-27" value="List&amp;lt;T extends B&amp;gt;&amp;nbsp;" style="rounded=0;whiteSpace=wrap;html=1;align=center;" vertex="1" parent="1">
          <mxGeometry x="915" y="190" width="120" height="60" as="geometry" />
        </mxCell>
        <mxCell id="9XJBlOZOh_5K-bEGQY22-28" value="" style="endArrow=classic;html=1;dashed=1;" edge="1" parent="1">
          <mxGeometry width="50" height="50" relative="1" as="geometry">
            <mxPoint x="1012" y="229" as="sourcePoint" />
            <mxPoint x="1012" y="289" as="targetPoint" />
          </mxGeometry>
        </mxCell>
        <mxCell id="9XJBlOZOh_5K-bEGQY22-29" value="getBounds()" style="text;html=1;strokeColor=none;fillColor=none;align=center;verticalAlign=middle;whiteSpace=wrap;rounded=0;" vertex="1" parent="1">
          <mxGeometry x="985" y="300" width="40" height="20" as="geometry" />
        </mxCell>
        <mxCell id="9XJBlOZOh_5K-bEGQY22-30" value="" style="endArrow=classic;html=1;dashed=1;" edge="1" parent="1">
          <mxGeometry width="50" height="50" relative="1" as="geometry">
            <mxPoint x="980" y="212" as="sourcePoint" />
            <mxPoint x="980" y="140" as="targetPoint" />
          </mxGeometry>
        </mxCell>
        <mxCell id="9XJBlOZOh_5K-bEGQY22-31" value="TypeVariable" style="text;html=1;strokeColor=none;fillColor=none;align=center;verticalAlign=middle;whiteSpace=wrap;rounded=0;" vertex="1" parent="1">
          <mxGeometry x="959" y="110" width="40" height="20" as="geometry" />
        </mxCell>
      </root>
    </mxGraphModel>
  </diagram>
</mxfile>
